<?xml version="1.0" encoding="UTF-8" standalone="no"?>
<!-- Created with Inkscape (http://www.inkscape.org/) -->

<svg
   xmlns:dc="http://purl.org/dc/elements/1.1/"
   xmlns:cc="http://creativecommons.org/ns#"
   xmlns:rdf="http://www.w3.org/1999/02/22-rdf-syntax-ns#"
   xmlns:svg="http://www.w3.org/2000/svg"
   xmlns="http://www.w3.org/2000/svg"
   xmlns:sodipodi="http://sodipodi.sourceforge.net/DTD/sodipodi-0.dtd"
   xmlns:inkscape="http://www.inkscape.org/namespaces/inkscape"
   version="1.1"
   id="svg4949"
   width="185.33333"
   height="173.33333"
   viewBox="0 0 185.33333 173.33333"
   sodipodi:docname="ISSlogo.svg"
   inkscape:version="0.92.2 (5c3e80d, 2017-08-06)">
  <metadata
     id="metadata4955">
    <rdf:RDF>
      <cc:Work
         rdf:about="">
        <dc:format>image/svg+xml</dc:format>
        <dc:type
           rdf:resource="http://purl.org/dc/dcmitype/StillImage" />
      </cc:Work>
    </rdf:RDF>
  </metadata>
  <defs
     id="defs4953" />
  <sodipodi:namedview
     pagecolor="#ffffff"
     bordercolor="#666666"
     borderopacity="1"
     objecttolerance="10"
     gridtolerance="10"
     guidetolerance="10"
     inkscape:pageopacity="0"
     inkscape:pageshadow="2"
     inkscape:window-width="1920"
     inkscape:window-height="1018"
     id="namedview4951"
     showgrid="false"
     inkscape:zoom="1.9255062"
     inkscape:cx="-144.23827"
     inkscape:cy="38.303888"
     inkscape:window-x="-8"
     inkscape:window-y="-8"
     inkscape:window-maximized="1"
     inkscape:current-layer="svg4949" />
  <path
     sodipodi:nodetypes="scscssssssscsssscsccsccscscccccccscssscssccccsssssssssssssscsssssssssssssscssssssssscssssssssssccsccscsccs"
     inkscape:connector-curvature="0"
     id="path5736"
     d="m 93.612646,172.36966 c -31.17353,0.27424 -40.34069,-0.0225 -41.18862,-1.33333 -0.59988,-0.92735 -1.69069,-3.48608 -2.42403,-5.68608 -1.02926,-3.08779 -3.4352,-5.0812 -10.54995,-8.74106 -5.38137,-2.76818 -11.55735,-7.32646 -14.84173,-10.95417 -3.67293,-4.05688 -7.2458,-10.27793 -10.29505,-17.92562 -2.56847,-6.44188 -5.9147301,-16.13767 -7.4361401,-21.54622 -1.52141,-5.40855 -3.6911599,-10.855802 -4.82166,-12.104995 -1.13050998,-1.249192 -2.0554699764649,-4.124943 -2.0554699764649,-6.390555 0,-2.265613 0.3641999964649,-5.068368 0.8093199964649,-6.228346 0.72705998,-1.894686 10.06344008,-2.10905 91.85735008,-2.10905 81.793904,0 91.130294,0.214364 91.857344,2.10905 0.44513,1.159978 0.80932,3.962733 0.80932,6.228346 0,2.265612 -0.90909,5.123827 -2.0202,6.351587 -1.11111,1.22776 -3.50173,7.342653 -5.31251,13.588643 -1.81078,6.24599 -5.4369,16.47949 -8.05806,22.74109 -2.62116,6.2616 -6.68054,13.58934 -9.02082,16.28386 -2.34029,2.69452 -8.39784,7.41666 -13.46121,10.49366 -5.06336,3.07699 -9.61875,6.48162 -10.12307,7.56582 -0.50432,1.08421 -1.52668,3.17129 -2.2719,4.63796 -1.30346,2.56526 -2.87966,2.68008 -41.452914,3.01941 z m -4.27931,-6.35275 25.564964,-0.45904 1.10169,-2.73164 c 0.65639,-1.6275 0.91667,-3.2142 0,-3.47598 -0.91667,-0.2618 -14.58333,-0.49104 -28.333324,-0.27638 l -25,0.39027 v 3.2764 3.27637 l 26.66667,3e-5 z m -1.82993,-12.15333 c 22.466994,0.1284 26.925844,0.19194 29.246214,-0.94687 2.83078,-1.69241 6.60629,-4.07038 13.61762,-8.7167 7.68933,-5.09564 9.84396,-8.7659 11.98165,-12.56942 1.61701,-2.87708 5.05001,-10.69454 7.62889,-17.37211 2.57888,-6.67757 5.23973,-13.86535 5.23973,-14.626333 0,-0.938528 -23.29162,-0.281918 -71.242914,-0.281918 h -70.69207 l 0.85448,3.666671 c 0.46996,2.01667 3.16913,9.66667 5.99816,17 2.82903,7.33335 6.92495,15.49275 9.10205,18.13201 2.279,2.76282 7.80588,6.66738 13.02724,9.20332 4.98788,2.42256 10.34261,5.48682 12.90927,6.024 2.56667,0.53717 17.56947,0.40302 32.32968,0.48735 z m -1.72316,-61.180012 c 55.533884,0 74.080574,-0.394158 75.286414,-1.6 0.88,-0.88 1.87542,-3.389887 1.87542,-4.343221 0,-1.402125 -14.92499,-0.723446 -76.942084,-0.723446 -42.16666,0 -76.6666601,0.339445 -76.6666601,0.754321 0,0.414878 0.62111,1.914878 1.3802401,3.333334 1.33905,2.502032 3.57967,2.579012 75.06667,2.579012 z m -22.17945,-34.666666 c -0.31598,0 -2.08578,-1.188768 -3.93289,-2.641706 -1.84711,-1.452938 -4.32822,-5.065552 -5.51357,-8.028029 -1.62221,-4.054325 -1.8607,-6.696922 -0.96439,-10.686106 0.65493,-2.914882 3.05512,-7.423145 5.33375,-10.018366 2.27863,-2.59522 4.14297,-6.222 4.14297,-8.05951 0,-1.837511 -1.25244,-5.034939 -2.78319,-7.105397 -1.53459,-2.0756473 -2.58138,-5.1917754 -2.33333,-6.9460097 0.30363,-2.147393 1.46073,-3.324718 3.55981,-3.62201896 1.71047,-0.242263 4.3219,0.65632096 5.80317,1.99685196 1.48127,1.340531 3.53179,4.0589503 4.55671,6.0409304 1.02492,1.9819803 1.8635,6.5508953 1.8635,10.1531413 0,5.280738 -0.78074,7.531965 -4.03013,11.620797 -2.21657,2.78919 -4.37696,6.453155 -4.80087,8.142145 -0.48198,1.920337 0.27864,4.768831 2.03012,7.602795 1.54048,2.492548 2.80088,5.489975 2.80088,6.660948 0,1.170974 -1.16056,2.750154 -2.57902,3.509288 -1.41845,0.759135 -2.83754,1.380246 -3.15352,1.380246 z m 27.12589,0 c -1.20635,0 -2.91335,-0.72 -3.79335,-1.6 -0.88,-0.88 -1.6,-2.763855 -1.6,-4.186343 0,-1.422489 0.84389,-3.252489 1.87531,-4.066667 1.03143,-0.814178 2.25635,-3.32676 2.72206,-5.583514 0.69314,-3.358827 -0.0683,-5.414819 -4.19747,-11.333332 -4.13096,-5.921133 -5.02922,-8.347683 -4.96141,-13.402732 0.0658,-4.901284 0.9908,-7.319027 4.4914,-11.7388994 3.46911,-4.3801063 5.15391,-5.47988126 7.90602,-5.16074326 2.45703,0.28491996 3.62433,1.29929096 3.92406,3.40996596 0.23466,1.6524203 -0.81534,4.5833364 -2.33333,6.5131447 -1.51799,1.929809 -2.75998,5.227829 -2.75998,7.328933 0,2.101103 1.15988,4.98007 2.57752,6.397703 1.41763,1.417633 3.48607,3.967633 4.59654,5.666666 1.110464,1.699034 2.152194,5.489151 2.314964,8.422485 0.16916,3.048705 -0.72641,7.332382 -2.090664,9.999999 -1.31263,2.566667 -3.30723,5.716667 -4.43246,7 -1.12523,1.283334 -3.03287,2.333334 -4.23921,2.333334 z m 27.999984,0 c -1.20634,0 -2.91335,-0.72 -3.79335,-1.6 -0.88,-0.88 -1.6,-2.906534 -1.6,-4.503407 0,-1.596875 0.9,-3.650341 2,-4.56326 1.13673,-0.943404 2,-3.850324 2,-6.734688 0,-2.79116 -0.78996,-5.867693 -1.75546,-6.83674 -0.9655,-0.969048 -2.84429,-3.426829 -4.17508,-5.461739 -1.63778,-2.504328 -2.39796,-6.109869 -2.3526,-11.158369 0.0593,-6.594188 0.57923,-7.9869993 4.48691,-12.0187034 2.71803,-2.8042903 5.45496,-4.41184726 7.10806,-4.17496426 1.82086,0.26092196 2.82458,1.57121196 3.11096,4.06116796 0.25586,2.2245543 -0.66542,5.0594167 -2.33333,7.1798117 -1.51587,1.927118 -2.75613,4.705835 -2.75613,6.17493 0,1.469094 2.4,5.274773 5.33334,8.457063 4.60086,4.991343 5.33334,6.623202 5.33334,11.881987 0,3.352802 -0.97236,8.016208 -2.16079,10.363124 -1.18844,2.346916 -3.08143,5.31712 -4.20665,6.600453 -1.12523,1.283334 -3.03288,2.333334 -4.23922,2.333334 z"
     style="fill:#ed5c49;stroke-width:1.33333325" />
</svg>
